#!OML:ASF E:\Mandelcareful walks\Project 1\Capture day 1\Session 1\Subject1.ASF
:FULLY-SPECIFIED
:DEGREES
867
root -1.69826 14.9729 -4.04287 -172.658 -25.267 179.065
lowerback 43.6896 0.677474 2.56942
upperback 8.20235 -0.486255 1.59791
thorax -11.3278 -1.36952 0.843341
lowerneck -31.4528 -3.21649 -6.36282
upperneck 16.2343 -1.99074 1.23993
head 10.3323 -1.20482 1.10824
rclavicle -3.53837e-014 1.15295e-014
rhumerus -19.8914 3.32288 -73.8736
rradius 72.355
rwrist -9.15406
rhand -10.8764 -22.4148
rfingers 7.12502
rthumb 15.1395 -51.841
lclavicle -3.53837e-014 1.15295e-014
lhumerus -13.5481 -30.2055 71.9572
lradius 71.5827
lwrist 23.3294
lhand -28.3476 -16.9166
lfingers 7.12502
lthumb -1.72162 13.0562
rfemur -44.5838 -23.8798 9.4739
rtibia 58.4045
rfoot -11.9739 -10.9234
rtoes -13.2923
lfemur -34.9547 5.35381 -20.0735
ltibia 65.0927
lfoot -32.7236 8.00126
ltoes -5.55999
868
root -1.84074 14.9937 -4.04497 -173.107 -24.7035 179.133
lowerback 44.3607 1.08298 2.05526
upperback 8.23874 -0.267646 1.7004
thorax -11.4875 -1.29659 1.13798
lowerneck -31.6656 -1.67526 -5.14337
upperneck 17.001 -0.0239059 -0.267744
head 10.5761 -0.440858 0.70634
rclavicle -1.59028e-014 -2.5842e-014
rhumerus -19.5422 3.52687 -74.0397
rradius 72.3457
rwrist -9.00078
rhand -10.4828 -22.0718
rfingers 7.12502
rthumb 15.5187 -51.4691
lclavicle -1.59028e-014 -2.5842e-014
lhumerus -12.6449 -29.385 72.067
lradius 70.8029
lwrist 23.2364
lhand -28.466 -16.1815
lfingers 7.12502
lthumb -1.83595 13.7904
rfemur -46.3946 -24.1142 12.6613
rtibia 59.6005
rfoot -12.9554 -9.76894
rtoes -14.7515
lfemur -33.9095 5.7099 -20.5431
ltibia 64.6739
lfoot -33.1132 8.14397
ltoes -4.89756
869
root -1.97828 15.013 -4.05625 -173.323 -23.9802 179.051
lowerback 44.7305 1.61747 1.23345
upperback 8.29963 -0.026602 1.83153
thorax -11.5403 -1.20155 1.60334
lowerneck -31.3997 -0.0542645 -4.02198
upperneck 17.3284 2.05294 -1.71396
head 10.6372 0.377203 0.361247
rclavicle 6.87795e-014 -9.10434e-014
rhumerus -19.1217 3.72615 -74.2491
rradius 72.3423
rwrist -8.92288
rhand -10.696 -22.3354
rfingers 7.12502
rthumb 15.3133 -51.7484
lclavicle 6.87795e-014 -9.10434e-014
lhumerus -11.6553 -28.27 72.2966
lradius 69.9849
lwrist 22.9313
lhand -28.2212 -15.4757
lfingers 7.12502
lthumb -1.59959 14.498
rfemur -48.1865 -23.8711 15.6353
rtibia 60.4962
rfoot -13.924 -8.22829
rtoes -13.3488
lfemur -33.001 6.28708 -21.1823
ltibia 64.2986
lfoot -33.551 8.41897
ltoes -4.9005
870
root -2.11112 15.0271 -4.07458 -173.501 -23.0965 178.98
lowerback 44.9712 2.2533 0.277359
upperback 8.35924 0.280987 1.99743
thorax -11.5669 -1.07289 2.14214
lowerneck -31.0113 1.50471 -3.04452
upperneck 17.6795 4.09435 -3.04348
head 10.7404 1.18416 0.0756771
rclavicle -6.36111e-015 9.14409e-015
rhumerus -18.6652 3.92112 -74.4454
rradius 72.3115
rwrist -8.94271
rhand -11.0277 -22.5855
rfingers 7.12502
rthumb 14.9939 -52.0227
lclavicle -6.36111e-015 9.14409e-015
lhumerus -10.6365 -27.0232 72.6148
lradius 69.1745
lwrist 22.6677
lhand -27.8051 -15.2264
lfingers 7.12502
lthumb -1.19769 14.75
rfemur -49.8109 -23.3495 18.5851
rtibia 61.0555
rfoot -14.1829 -6.65759
rtoes -16.2313
lfemur -32.1426 7.14642 -21.792
ltibia 63.9626
lfoot -33.9504 8.78328
ltoes -6.62815
871
root -2.24791 15.0321 -4.09449 -173.528 -22.452 178.933
lowerback 45.0751 2.62658 -0.441149
upperback 8.33143 0.410598 2.14464
thorax -11.6501 -1.0106 2.6172
lowerneck -30.7414 2.97835 -2.24251
upperneck 18.2512 6.08182 -4.14952
head 10.9835 1.97354 -0.10419
rclavicle -3.18055e-015 1.98785e-015
rhumerus -18.1112 4.06534 -74.6613
rradius 72.0379
rwrist -8.85663
rhand -10.8556 -22.3982
rfingers 7.12502
rthumb 15.1596 -51.8229
lclavicle -3.18055e-015 1.98785e-015
lhumerus -9.83673 -25.6646 73.0698
lradius 68.5089
lwrist 22.5839
lhand -27.9005 -15.3719
lfingers 7.12502
lthumb -1.28984 14.604
rfemur -51.2898 -22.7132 21.4379
rtibia 61.2899
rfoot -14.3583 -5.18761
rtoes -19.0192
lfemur -31.559 7.74228 -22.3835
ltibia 63.6784
lfoot -34.2696 9.02815
ltoes -6.93598
872
root -2.38582 15.0382 -4.12068 -173.369 -21.8391 178.86
lowerback 44.8844 2.91598 -1.00747
upperback 8.32526 0.518949 2.19019
thorax -11.6214 -0.949728 2.9074
lowerneck -30.5918 4.35605 -1.30765
upperneck 18.9038 7.90624 -5.22162
head 11.3216 2.69232 -0.312506
rclavicle 3.29983e-014 1.98785e-014
rhumerus -17.6081 4.04399 -74.9073
rradius 71.7489
rwrist -8.76662
rhand -10.6119 -22.3216
rfingers 7.12502
rthumb 15.3943 -51.7284
lclavicle 3.29983e-014 1.98785e-014
lhumerus -9.17176 -24.232 73.6935
lradius 68.1014
lwrist 22.3251
lhand -28.1624 -15.68
lfingers 7.12502
lthumb -1.54275 14.2941
rfemur -52.5363 -21.5529 23.8287
rtibia 61.2198
rfoot -14.6139 -3.33709
rtoes -20.3285
lfemur -31.1448 8.21169 -23.0168
ltibia 63.3809
lfoot -34.6524 9.10896
ltoes -4.98502
873
root -2.52071 15.0458 -4.15664 -173.314 -21.2726 178.76
lowerback 44.7554 3.13338 -1.33809
upperback 8.32892 0.615275 2.03587
thorax -11.588 -0.898313 2.864
lowerneck -30.3462 5.67534 0.137315
upperneck 19.496 9.51797 -6.55666
head 11.7007 3.31618 -0.730273
rclavicle 2.5842e-014 -3.99557e-014
rhumerus -17.3979 3.78673 -75.3274
rradius 71.7374
rwrist -8.82457
rhand -10.9815 -22.8423
rfingers 7.12502
rthumb 15.0383 -52.2761
lclavicle 2.5842e-014 -3.99557e-014
lhumerus -8.75232 -22.7819 74.5543
lradius 67.9153
lwrist 21.5124
lhand -28.4283 -16.2239
lfingers 7.12502
lthumb -1.79952 13.7482
rfemur -53.2449 -20.1234 25.7592
rtibia 60.9005
rfoot -14.7646 -1.6826
rtoes -21.9124
lfemur -30.514 8.61864 -23.6403
ltibia 62.9962
lfoot -35.0727 9.43311
ltoes -5.29349
874
root -2.65541 15.0545 -4.19642 -173.554 -21.0406 178.708
lowerback 45.0208 3.13739 -1.47393
upperback 8.29493 0.521036 1.98631
thorax -11.6977 -0.945577 2.92767
lowerneck -29.9631 6.86247 1.32789
upperneck 19.9178 11.0305 -7.76529
head 12.0168 3.89998 -1.07696
rclavicle -2.64384e-014 4.23411e-014
rhumerus -17.1404 3.69946 -75.6956
rradius 71.6544
rwrist -8.87302
rhand -11.4639 -23.1625
rfingers 7.12502
rthumb 14.5735 -52.6305
lclavicle -2.64384e-014 4.23411e-014
lhumerus -8.29555 -21.286 75.1421
lradius 67.932
lwrist 21.0245
lhand -28.3503 -16.5988
lfingers 7.12502
lthumb -1.72419 13.3739
rfemur -53.3361 -18.8977 27.434
rtibia 60.4019
rfoot -14.7366 -0.636369
rtoes -23.9465
lfemur -29.5694 8.73734 -24.1338
ltibia 62.5669
lfoot -35.4356 9.7877
ltoes -6.32444
875
root -2.79918 15.0775 -4.2365 -174.026 -21.1412 178.825
lowerback 45.5909 2.8442 -1.14791
upperback 8.22591 0.260241 1.96966
thorax -11.9161 -1.08132 2.872
lowerneck -29.5404 7.8424 2.07353
upperneck 20.2147 12.3092 -8.44571
head 12.2304 4.42822 -1.19876
rclavicle -3.3197e-014 8.34896e-015
rhumerus -16.875 3.71808 -75.9184
rradius 71.5371
rwrist -9.04443
rhand -11.5427 -23.073
rfingers 7.12502
rthumb 14.4976 -52.5465
lclavicle -3.3197e-014 8.34896e-015
lhumerus -7.96204 -19.7489 75.7542
lradius 68.217
lwrist 20.5795
lhand -27.7105 -16.5389
lfingers 7.12502
lthumb -1.10633 13.438
rfemur -53.1116 -18.0993 28.9672
rtibia 59.8153
rfoot -14.5676 0.340738
rtoes -23.8136
lfemur -28.3963 8.54191 -24.4119
ltibia 62.0708
lfoot -35.7694 9.68629
ltoes -4.62561
876
root -2.95331 15.0717 -4.28208 -174.477 -21.5257 179.054
lowerback 46.0273 2.34045 -0.526985
upperback 8.14711 -0.0826094 2.0262
thorax -12.1029 -1.25325 2.78355
lowerneck -29.1679 8.63893 2.68638
upperneck 20.5267 13.3684 -9.00971
head 12.4463 4.86083 -1.29524
rclavicle -3.33958e-014 -1.07344e-014
rhumerus -16.5544 3.79299 -75.9957
rradius 71.4604
rwrist -9.24118
rhand -11.3927 -23.0365
rfingers 7.12502
rthumb 14.6422 -52.4995
lclavicle -3.33958e-014 -1.07344e-014
lhumerus -7.72441 -18.3417 76.4627
lradius 68.634
lwrist 20.4464
lhand -27.1076 -16.6533
lfingers 7.12502
lthumb -0.523974 13.3258
rfemur -52.7499 -17.6439 30.4175
rtibia 59.2422
rfoot -14.2586 1.27108
rtoes -21.923
lfemur -27.357 8.08839 -24.6101
ltibia 61.6951
lfoot -36.1587 9.45501
ltoes -2.39073
877
root -3.10201 15.0599 -4.33751 -174.639 -21.7285 178.992
lowerback 46.2532 1.93605 -0.26053
upperback 8.00687 -0.435355 2.02307
thorax -12.3095 -1.40471 2.81575
lowerneck -28.8595 9.299 3.1522
upperneck 20.8704 14.3002 -9.54477
head 12.6797 5.22132 -1.37981
rclavicle -1.98785e-016 1.98785e-015
rhumerus -16.2222 3.93814 -76.2928
rradius 71.2163
rwrist -9.15135
rhand -11.2608 -22.7381
rfingers 7.12502
rthumb 14.7692 -52.1919
lclavicle -1.98785e-016 1.98785e-015
lhumerus -7.66633 -16.9377 77.2333
lradius 69.0556
lwrist 20.4174
lhand -26.9192 -17.2151
lfingers 7.12502
lthumb -0.342071 12.7644
rfemur -52.677 -16.9841 31.6222
rtibia 58.8294
rfoot -13.6109 1.1764
rtoes -22.5022
lfemur -26.492 7.87461 -25.1212
ltibia 61.3449
lfoot -36.6012 9.46882
ltoes -1.72623
878
root -3.2466 15.0455 -4.39613 -174.587 -22.0943 178.517
lowerback 46.4416 1.52883 -0.157243
upperback 7.84395 -0.855055 1.98354
thorax -12.5325 -1.57268 2.92409
lowerneck -28.595 9.79776 3.32068
upperneck 21.1904 15.0812 -9.90835
head 12.8699 5.51258 -1.38353
rclavicle -1.13307e-014 9.93923e-015
rhumerus -16.0989 3.97389 -76.4358
rradius 71.0205
rwrist -9.04183
rhand -11.1975 -22.5667
rfingers 7.12502
rthumb 14.8303 -52.016
lclavicle -1.13307e-014 9.93923e-015
lhumerus -7.49261 -15.7992 78.0275
lradius 69.3897
lwrist 20.4332
lhand -26.8727 -17.6101
lfingers 7.12502
lthumb -0.297158 12.3694
rfemur -52.5329 -16.0845 31.8625
rtibia 58.6713
rfoot -13.1691 0.823191
rtoes -21.1969
lfemur -25.7127 7.55319 -26.0591
ltibia 61.0335
lfoot -37.0124 9.68305
ltoes -1.72907
879
root -3.38838 15.0269 -4.46004 -174.405 -22.671 177.96
lowerback 46.5336 1.01994 0.0590423
upperback 7.65593 -1.32784 1.89588
thorax -12.7587 -1.75598 2.94587
lowerneck -28.2889 10.223 3.52968
upperneck 21.4453 15.7193 -10.2075
head 13.0167 5.75972 -1.39951
rclavicle 4.23411e-014 -1.94809e-014
rhumerus -16.1291 3.68748 -76.5602
rradius 70.9124
rwrist -9.04628
rhand -11.0448 -22.6758
rfingers 7.12502
rthumb 14.9773 -52.1142
lclavicle 4.23411e-014 -1.94809e-014
lhumerus -7.22657 -15.0708 78.5822
lradius 69.663
lwrist 20.8625
lhand -26.6004 -17.8501
lfingers 7.12502
lthumb -0.0340971 12.1297
rfemur -52.4184 -15.2473 31.6461
rtibia 58.7321
rfoot -12.8836 0.58688
rtoes -19.2752
lfemur -25.0455 7.2296 -27.0718
ltibia 60.7335
lfoot -37.3282 9.70505
ltoes -2.49613
880
root -3.5336 15.0133 -4.534 -174.193 -23.1739 177.487
lowerback 46.5372 0.497573 0.382632
upperback 7.42392 -1.74648 1.79973
thorax -13.0195 -1.91052 2.87803
lowerneck -27.8891 10.5389 3.64982
upperneck 21.6059 16.2146 -10.4621
head 13.0875 5.95241 -1.41952
rclavicle 1.03368e-014 3.57812e-015
rhumerus -16.8814 4.87828 -76.1431
rradius 71.7889
rwrist -10.543
rhand -11.7034 -23.7018
rfingers 7.12502
rthumb 14.3428 -53.1864
lclavicle 1.03368e-014 3.57812e-015
lhumerus -7.14756 -14.5764 79.0816
lradius 70.0015
lwrist 21.8824
lhand -26.786 -18.4542
lfingers 7.12502
lthumb -0.213406 11.5255
rfemur -52.3307 -14.5758 31.487
rtibia 58.9311
rfoot -12.3306 0.242086
rtoes -19.0486
lfemur -24.4122 7.38031 -27.9776
ltibia 60.518
lfoot -37.5856 9.50184
ltoes -4.08312
